<svg width="1005" height="280" viewBox="0 0 1005 280" fill="none" xmlns="http://www.w3.org/2000/svg">
<path d="M139.928 279.855C217.208 279.855 279.855 217.208 279.855 139.928C279.855 62.6478 217.208 0 139.928 0C62.6478 0 0 62.6478 0 139.928C0 217.208 62.6478 279.855 139.928 279.855Z" fill="#0048FF"/>
<path d="M209.293 56.519H112.406V90.2262H209.293V56.519Z" fill="white"/>
<path d="M170.313 125.314H112.406V159.021H170.313V125.314Z" fill="white"/>
<path d="M112.504 90.583H75.0806V125.414H112.504V90.583Z" fill="white"/>
<path d="M112.504 159.105H75.0806V223.408H112.504V159.105Z" fill="white"/>
<path d="M370.416 224.413H337.798V61.5433H446.452V92.3982H370.416V128.983H437.195V159.618H370.416V224.413Z" fill="#0048FF"/>
<path d="M554.43 118.625V104.299H583.963V224.413H554.43V210.529C544.145 221.695 531.362 227.279 516.082 227.279C498.744 227.279 484.492 221.255 473.326 209.206C462.159 197.158 456.576 182.025 456.576 163.805C456.576 145.733 462.233 130.82 473.546 119.066C484.86 107.165 499.038 101.214 516.082 101.214C531.068 101.214 543.851 107.018 554.43 118.625ZM554.871 164.246C554.871 154.843 551.638 146.688 545.174 139.783C538.856 133.024 530.848 129.645 521.151 129.645C511.307 129.645 503.226 133.024 496.908 139.783C490.737 146.541 487.651 154.696 487.651 164.246C487.651 173.944 490.81 182.172 497.128 188.93C503.446 195.689 511.454 199.068 521.151 199.068C530.848 199.068 538.856 195.689 545.174 188.93C551.638 182.025 554.871 173.797 554.871 164.246Z" fill="#0048FF"/>
<path d="M706.673 125.457L647.608 198.628H708.877V224.413H604.852V203.256L665.019 130.306H607.937V104.52H706.673V125.457Z" fill="#0048FF"/>
<path d="M765.757 71.6813C765.757 77.1177 763.921 81.6725 760.247 85.3457C756.574 89.0189 752.019 90.8555 746.583 90.8555C741.147 90.8555 736.592 89.0189 732.919 85.3457C729.245 81.6725 727.409 77.1177 727.409 71.6813C727.409 66.245 729.245 61.7636 732.919 58.2374C736.592 54.5641 741.147 52.7275 746.583 52.7275C752.019 52.7275 756.574 54.5641 760.247 58.2374C763.921 61.7636 765.757 66.245 765.757 71.6813ZM762.01 104.299V224.413H730.935V104.299H762.01Z" fill="#0048FF"/>
<path d="M906.269 161.602C906.269 165.275 905.902 169.83 905.167 175.266H815.027C819.435 192.31 831.116 200.831 850.069 200.831C864.028 200.831 876.957 196.791 888.858 188.71L901.2 210.529C885.92 221.548 868.435 227.058 848.747 227.058C827.736 227.058 811.574 220.961 800.261 208.766C789.094 196.717 783.511 181.878 783.511 164.246C783.511 145.88 789.314 130.82 800.922 119.066C812.529 107.165 827.589 101.214 846.102 101.214C863.587 101.214 877.986 106.65 889.299 117.523C900.613 128.396 906.269 143.089 906.269 161.602ZM846.102 127C838.315 127 831.63 129.277 826.047 133.832C820.61 138.24 816.937 144.337 815.027 152.125H876.076C874.606 144.337 871.227 138.24 865.938 133.832C860.648 129.277 854.036 127 846.102 127Z" fill="#0048FF"/>
<path d="M958.718 224.413H927.642V104.299H957.395V120.388C964.595 107.458 975.614 100.994 990.454 100.994C995.303 100.994 1000.15 101.875 1005 103.638L1002.36 133.391C997.066 131.775 992.291 130.967 988.03 130.967C978.92 130.967 971.721 134.052 966.431 140.223C961.289 146.248 958.718 155.284 958.718 167.332V224.413Z" fill="#0048FF"/>
</svg>
