<svg width="190" height="33" viewBox="0 0 190 33" fill="none" xmlns="http://www.w3.org/2000/svg">
<path d="M22.183 15.5584L12.3962 5.51949C13.0268 4.85361 13.7778 4.32354 14.6059 3.95963C15.4341 3.59573 16.3232 3.40514 17.2224 3.39879C18.1216 3.39243 19.0132 3.57044 19.846 3.92261C20.6789 4.27477 21.4367 4.79418 22.076 5.45108L27.0517 10.5005L22.183 15.5584Z" fill="url(#paint0_linear_2607_2584)"/>
<path d="M28.3442 21.899L33.394 27.1109C34.6886 28.4523 36.4425 29.2057 38.271 29.2057C40.0995 29.2057 41.8533 28.4523 43.1479 27.1109L33.1841 16.8838L28.3442 21.899Z" fill="url(#paint1_linear_2607_2584)"/>
<path d="M42.9254 5.56222L21.9607 27.1579L20.9812 28.1626L20.5696 28.5902L19.8412 29.2187C17.6593 31.149 14.8875 32.2099 12.0216 32.2116C8.83532 32.207 5.78073 30.8904 3.5273 28.5502C1.27388 26.21 0.00544366 23.0371 0 19.727V4.06151C0 3.11694 0.361192 2.21106 1.00412 1.54314C1.64704 0.875231 2.51904 0.5 3.42827 0.5C4.33751 0.5 5.2095 0.875231 5.85243 1.54314C6.49535 2.21106 6.85655 3.11694 6.85655 4.06151V7.12706H9.06249C9.80882 7.15654 10.5158 7.4826 11.0373 8.03793C11.5589 8.59327 11.8553 9.33546 11.8654 10.1113C11.8754 10.8871 11.5983 11.6373 11.0913 12.207C10.5842 12.7767 9.88598 13.1224 9.14069 13.1727L6.88535 13.1983V19.727C6.88535 19.8767 6.88535 20.0263 6.88535 20.176C7.0012 21.5094 7.59196 22.7499 8.54198 23.6546C9.49199 24.5593 10.7328 25.063 12.0216 25.0672C13.327 25.0746 14.587 24.5691 15.5486 23.652L15.7338 23.4596L15.8985 23.2928L33.2333 5.49382C33.8728 4.83499 34.6314 4.31394 35.4654 3.96064C36.2994 3.60733 37.1924 3.42873 38.093 3.43508C38.9937 3.44144 39.8843 3.63264 40.7136 3.99768C41.5429 4.36273 42.2946 4.89442 42.9254 5.56222Z" fill="url(#paint2_linear_2607_2584)"/>
<path d="M42.9254 5.56222L21.9607 27.1579L20.9813 28.1669C19.7273 29.2669 18.1967 29.9714 16.57 30.1974C14.9432 30.4234 13.2882 30.1614 11.8001 29.4424C10.312 28.7233 9.05281 27.5772 8.17109 26.1391C7.28937 24.7011 6.82186 23.0311 6.82371 21.3261C6.82394 20.9402 6.84731 20.5546 6.89367 20.1717C7.00836 21.5049 7.59738 22.7457 8.54566 23.6517C9.49393 24.5578 10.7333 25.064 12.0217 25.0715C13.3271 25.079 14.587 24.5734 15.5487 23.6563L15.7339 23.4639L15.8986 23.2971L33.2333 5.49382C33.8731 4.8355 34.6318 4.31494 35.4658 3.96196C36.2998 3.60898 37.1926 3.43054 38.0931 3.43689C38.9936 3.44325 39.884 3.63427 40.7133 3.999C41.5426 4.36372 42.2943 4.89493 42.9254 5.56222Z" fill="url(#paint3_linear_2607_2584)"/>
<path d="M175.055 23.3133L181.191 15.2676L181.114 17.4573L175.233 9.61531H179.689L183.406 14.7329L181.725 14.7839L185.57 9.61531H189.797L183.89 17.3809V15.2422L190 23.3133H185.494L181.598 17.8646L183.253 18.0938L179.383 23.3133H175.055Z" fill="#F79320"/>
<path d="M170.148 23.3141V9.6162H174.12V23.3141H170.148ZM172.134 7.70663C171.404 7.70663 170.81 7.49446 170.352 7.07011C169.893 6.64576 169.664 6.11957 169.664 5.49154C169.664 4.8635 169.893 4.33731 170.352 3.91297C170.81 3.48862 171.404 3.27644 172.134 3.27644C172.864 3.27644 173.458 3.48013 173.916 3.88751C174.374 4.27791 174.603 4.78712 174.603 5.41516C174.603 6.07714 174.374 6.62879 173.916 7.07011C173.475 7.49446 172.881 7.70663 172.134 7.70663Z" fill="#F79320"/>
<path d="M165.704 23.5185C164.091 23.5185 162.835 23.1111 161.935 22.2963C161.036 21.4646 160.586 20.234 160.586 18.6045V6.58699H164.558V18.5536C164.558 19.1307 164.711 19.5805 165.016 19.903C165.322 20.2086 165.737 20.3613 166.264 20.3613C166.892 20.3613 167.426 20.1916 167.868 19.8521L168.937 22.6528C168.53 22.9413 168.037 23.162 167.46 23.3148C166.9 23.4506 166.315 23.5185 165.704 23.5185ZM158.473 12.9777V9.92236H167.97V12.9777H158.473Z" fill="#F79320"/>
<path d="M153.809 23.3148V20.6414L153.554 20.0558V15.2692C153.554 14.4205 153.291 13.7585 152.765 13.2832C152.256 12.8079 151.466 12.5703 150.397 12.5703C149.667 12.5703 148.946 12.6891 148.233 12.9268C147.537 13.1474 146.943 13.453 146.451 13.8434L145.025 11.0681C145.772 10.5419 146.671 10.1346 147.724 9.846C148.776 9.55744 149.845 9.41316 150.932 9.41316C153.02 9.41316 154.641 9.90541 155.795 10.8899C156.949 11.8744 157.526 13.4105 157.526 15.4983V23.3148H153.809ZM149.633 23.5185C148.564 23.5185 147.647 23.3403 146.883 22.9838C146.12 22.6104 145.534 22.1096 145.127 21.4816C144.719 20.8536 144.516 20.1492 144.516 19.3684C144.516 18.5536 144.711 17.8407 145.101 17.2296C145.509 16.6186 146.145 16.1433 147.011 15.8038C147.876 15.4474 149.005 15.2692 150.397 15.2692H154.038V17.5861H150.83C149.896 17.5861 149.251 17.7389 148.895 18.0444C148.555 18.3499 148.386 18.7318 148.386 19.1901C148.386 19.6993 148.581 20.1067 148.971 20.4123C149.379 20.7008 149.93 20.8451 150.626 20.8451C151.288 20.8451 151.882 20.6923 152.408 20.3868C152.935 20.0643 153.317 19.5975 153.554 18.9864L154.165 20.8196C153.877 21.7023 153.351 22.3727 152.587 22.831C151.823 23.2893 150.838 23.5185 149.633 23.5185Z" fill="#F79320"/>
<path d="M137.531 23.5185C135.97 23.5185 134.595 23.213 133.407 22.6019C132.235 21.9909 131.327 21.1591 130.682 20.1068C130.037 19.0374 129.715 17.8238 129.715 16.4659C129.715 15.091 130.029 13.8773 130.657 12.8249C131.302 11.7556 132.176 10.9239 133.279 10.3298C134.383 9.71872 135.63 9.41319 137.022 9.41319C138.363 9.41319 139.568 9.70175 140.638 10.2789C141.724 10.839 142.581 11.6537 143.209 12.7231C143.837 13.7755 144.151 15.04 144.151 16.5168C144.151 16.6695 144.143 16.8478 144.126 17.0515C144.109 17.2382 144.092 17.4164 144.075 17.5861H132.948V15.2692H141.987L140.459 15.9566C140.459 15.2437 140.315 14.6242 140.026 14.098C139.738 13.5718 139.339 13.1644 138.83 12.8759C138.321 12.5703 137.727 12.4176 137.048 12.4176C136.369 12.4176 135.766 12.5703 135.24 12.8759C134.731 13.1644 134.332 13.5803 134.043 14.1235C133.755 14.6496 133.61 15.2777 133.61 16.0076V16.6186C133.61 17.3655 133.772 18.0275 134.094 18.6046C134.434 19.1647 134.9 19.5975 135.494 19.9031C136.106 20.1916 136.818 20.3359 137.633 20.3359C138.363 20.3359 139 20.2256 139.543 20.0049C140.103 19.7843 140.612 19.4533 141.07 19.0119L143.184 21.3034C142.556 22.0163 141.766 22.568 140.816 22.9584C139.865 23.3318 138.77 23.5185 137.531 23.5185Z" fill="#F79320"/>
<path d="M121.012 23.3148V9.61688H124.805V13.4869L124.271 12.3667C124.678 11.3991 125.332 10.6693 126.231 10.177C127.131 9.6678 128.226 9.41319 129.516 9.41319V13.0796C129.346 13.0626 129.193 13.0541 129.057 13.0541C128.922 13.0371 128.777 13.0286 128.625 13.0286C127.538 13.0286 126.656 13.3427 125.977 13.9707C125.315 14.5817 124.984 15.5408 124.984 16.8478V23.3148H121.012Z" fill="#F79320"/>
<path d="M113.607 23.5185C112.13 23.5185 110.815 23.2215 109.661 22.6274C108.506 22.0163 107.598 21.1761 106.936 20.1068C106.291 19.0374 105.969 17.8238 105.969 16.4659C105.969 15.091 106.291 13.8773 106.936 12.8249C107.598 11.7556 108.506 10.9239 109.661 10.3298C110.815 9.71872 112.13 9.41319 113.607 9.41319C115.05 9.41319 116.306 9.71872 117.375 10.3298C118.445 10.9239 119.234 11.7811 119.743 12.9013L116.662 14.5563C116.306 13.9113 115.856 13.436 115.313 13.1305C114.787 12.8249 114.21 12.6722 113.582 12.6722C112.903 12.6722 112.292 12.8249 111.748 13.1305C111.205 13.436 110.772 13.8688 110.45 14.429C110.144 14.9891 109.992 15.6681 109.992 16.4659C109.992 17.2636 110.144 17.9426 110.45 18.5027C110.772 19.0629 111.205 19.4957 111.748 19.8012C112.292 20.1068 112.903 20.2595 113.582 20.2595C114.21 20.2595 114.787 20.1152 115.313 19.8267C115.856 19.5212 116.306 19.0374 116.662 18.3754L119.743 20.0558C119.234 21.1591 118.445 22.0163 117.375 22.6274C116.306 23.2215 115.05 23.5185 113.607 23.5185Z" fill="#F79320"/>
<path d="M98.2308 9.92052C99.3171 9.92052 100.259 10.1327 101.057 10.557C101.872 10.9644 102.5 11.5925 102.941 12.4411C103.399 13.2729 103.629 14.3083 103.629 15.5474V23.3129H102.355V15.6492C102.355 14.1555 101.974 13.0183 101.21 12.2375C100.463 11.4567 99.4105 11.0663 98.0526 11.0663C97.0172 11.0663 96.1175 11.2784 95.3537 11.7028C94.5899 12.1271 94.0043 12.7212 93.5969 13.485C93.2065 14.2489 93.0113 15.1655 93.0113 16.2348V23.3129H91.7383V4.42097H93.0113V13.7142L92.7822 13.3068C93.1895 12.2544 93.86 11.4312 94.7936 10.8371C95.7271 10.2261 96.8729 9.92052 98.2308 9.92052Z" fill="black"/>
<path d="M84.1279 23.4152C82.8379 23.4152 81.6837 23.1267 80.6652 22.5496C79.6638 21.9724 78.866 21.1747 78.2719 20.1562C77.6948 19.1378 77.4062 17.9751 77.4062 16.6681C77.4062 15.3441 77.6948 14.1729 78.2719 13.1545C78.866 12.1361 79.6638 11.3468 80.6652 10.7866C81.6837 10.2095 82.8379 9.92097 84.1279 9.92097C85.1973 9.92097 86.1648 10.1247 87.0305 10.532C87.9131 10.9394 88.626 11.5505 89.1692 12.3652L88.2271 13.0527C87.7518 12.3737 87.1578 11.873 86.4449 11.5505C85.732 11.228 84.9596 11.0667 84.1279 11.0667C83.0925 11.0667 82.1589 11.3043 81.3272 11.7796C80.5125 12.2379 79.8675 12.8914 79.3922 13.7401C78.9339 14.5718 78.7048 15.5478 78.7048 16.6681C78.7048 17.7884 78.9339 18.7729 79.3922 19.6216C79.8675 20.4533 80.5125 21.1068 81.3272 21.582C82.1589 22.0403 83.0925 22.2695 84.1279 22.2695C84.9596 22.2695 85.732 22.1082 86.4449 21.7857C87.1578 21.4632 87.7518 20.9625 88.2271 20.2835L89.1692 20.971C88.626 21.7857 87.9131 22.3968 87.0305 22.8042C86.1648 23.2115 85.1973 23.4152 84.1279 23.4152Z" fill="black"/>
<path d="M70.0833 23.4152C68.7424 23.4152 67.5542 23.1267 66.5188 22.5496C65.5004 21.9724 64.6941 21.1747 64.1 20.1562C63.5229 19.1378 63.2344 17.9751 63.2344 16.6681C63.2344 15.3441 63.506 14.1814 64.0491 13.18C64.6093 12.1615 65.3731 11.3638 66.3406 10.7866C67.3081 10.2095 68.3944 9.92097 69.5996 9.92097C70.8047 9.92097 71.8826 10.201 72.8331 10.7612C73.8006 11.3213 74.556 12.1106 75.0991 13.129C75.6593 14.1305 75.9393 15.2932 75.9393 16.6172C75.9393 16.6681 75.9309 16.7275 75.9139 16.7954C75.9139 16.8463 75.9139 16.9057 75.9139 16.9736H64.1764V15.9807H75.2264L74.7172 16.4644C74.7342 15.429 74.5135 14.5039 74.0552 13.6892C73.6139 12.8575 73.0113 12.2125 72.2475 11.7542C71.4837 11.2789 70.6011 11.0413 69.5996 11.0413C68.6151 11.0413 67.7325 11.2789 66.9517 11.7542C66.1878 12.2125 65.5853 12.8575 65.1439 13.6892C64.7026 14.5039 64.482 15.4375 64.482 16.4899V16.719C64.482 17.8054 64.7196 18.7729 65.1949 19.6216C65.6871 20.4533 66.3576 21.1068 67.2063 21.582C68.055 22.0403 69.0225 22.2695 70.1088 22.2695C70.9575 22.2695 71.7468 22.1167 72.4767 21.8112C73.2235 21.5057 73.8516 21.0389 74.3608 20.4108L75.0991 21.2511C74.522 21.964 73.7921 22.5071 72.9095 22.8806C72.0438 23.237 71.1018 23.4152 70.0833 23.4152Z" fill="black"/>
<path d="M59.9015 23.4162C58.7303 23.4162 57.8307 23.0937 57.2026 22.4487C56.5916 21.8037 56.286 20.9211 56.286 19.8008V7.12128H57.5591V19.6735C57.5591 20.5222 57.7713 21.1757 58.1956 21.634C58.62 22.0923 59.231 22.3214 60.0288 22.3214C60.8605 22.3214 61.548 22.0753 62.0911 21.583L62.6258 22.4742C62.2863 22.7967 61.8705 23.0343 61.3782 23.1871C60.9029 23.3398 60.4107 23.4162 59.9015 23.4162ZM53.8418 11.1186V10.0238H61.7856V11.1186H53.8418Z" fill="black"/>
<defs>
<linearGradient id="paint0_linear_2607_2584" x1="0" y1="16.3561" x2="43.1479" y2="16.3561" gradientUnits="userSpaceOnUse">
<stop stop-color="#F15A24"/>
<stop offset="0.04" stop-color="#F26427"/>
<stop offset="0.23" stop-color="#F78731"/>
<stop offset="0.42" stop-color="#FAA239"/>
<stop offset="0.61" stop-color="#FDB53E"/>
<stop offset="0.8" stop-color="#FEC142"/>
<stop offset="1" stop-color="#FFC543"/>
</linearGradient>
<linearGradient id="paint1_linear_2607_2584" x1="0" y1="16.323" x2="43.1479" y2="16.323" gradientUnits="userSpaceOnUse">
<stop stop-color="#F15A24"/>
<stop offset="0.04" stop-color="#F26427"/>
<stop offset="0.23" stop-color="#F78731"/>
<stop offset="0.42" stop-color="#FAA239"/>
<stop offset="0.61" stop-color="#FDB53E"/>
<stop offset="0.8" stop-color="#FEC142"/>
<stop offset="1" stop-color="#FFC543"/>
</linearGradient>
<linearGradient id="paint2_linear_2607_2584" x1="-0.57503" y1="22.0358" x2="39.7621" y2="-0.503167" gradientUnits="userSpaceOnUse">
<stop stop-color="#F15A24"/>
<stop offset="0.03" stop-color="#F36828"/>
<stop offset="0.12" stop-color="#F78530"/>
<stop offset="0.22" stop-color="#FA9C37"/>
<stop offset="0.33" stop-color="#FCAF3D"/>
<stop offset="0.46" stop-color="#FEBB40"/>
<stop offset="0.63" stop-color="#FFC342"/>
<stop offset="1" stop-color="#FFC543"/>
</linearGradient>
<linearGradient id="paint3_linear_2607_2584" x1="14.709" y1="31.2284" x2="33.6246" y2="-0.311634" gradientUnits="userSpaceOnUse">
<stop stop-color="#F15A24"/>
<stop offset="0.11" stop-color="#F5772C"/>
<stop offset="0.25" stop-color="#F89335"/>
<stop offset="0.4" stop-color="#FBA93B"/>
<stop offset="0.56" stop-color="#FDB93F"/>
<stop offset="0.74" stop-color="#FFC242"/>
<stop offset="1" stop-color="#FFC543"/>
</linearGradient>
</defs>
</svg>
